<?xml version="1.0" standalone="no"?>
<!DOCTYPE svg PUBLIC "-//W3C//DTD SVG 20010904//EN"
 "http://www.w3.org/TR/2001/REC-SVG-20010904/DTD/svg10.dtd">
<svg version="1.0" xmlns="http://www.w3.org/2000/svg"
 width="103.000000pt" height="87.000000pt" viewBox="0 0 103.000000 87.000000"
 preserveAspectRatio="xMidYMid meet">

<g transform="translate(0.000000,87.000000) scale(0.100000,-0.100000)"
fill="#000000" stroke="none">
<path d="M482 843 c-13 -15 -28 -23 -38 -19 -8 3 -45 11 -82 16 -37 6 -77 13
-88 16 -17 5 -23 0 -27 -23 -3 -15 -16 -58 -29 -95 -20 -59 -27 -69 -55 -79
-35 -11 -36 -13 -24 -44 6 -15 -6 -36 -56 -97 -36 -43 -69 -78 -75 -78 -6 0 3
-13 18 -28 16 -16 50 -53 75 -83 36 -42 44 -59 38 -74 -13 -34 -10 -44 17 -47
15 -2 30 -10 35 -18 19 -38 59 -152 59 -171 0 -16 4 -19 18 -14 9 4 44 12 77
16 33 5 72 13 87 18 22 8 30 5 49 -15 l23 -24 25 24 c19 18 30 22 42 16 9 -5
47 -13 85 -18 38 -5 76 -12 85 -16 13 -6 18 0 22 26 3 18 16 62 30 98 20 53
30 67 53 75 16 5 30 10 32 11 1 1 -2 13 -8 28 -9 25 -5 33 37 83 27 31 59 68
73 81 l25 25 -35 36 c-104 110 -110 119 -100 146 13 35 15 32 -22 44 -29 10
-36 20 -56 79 -13 37 -26 79 -29 95 -3 15 -6 27 -7 27 -9 0 -174 -31 -187 -35
-12 -4 -27 2 -42 18 l-23 25 -22 -25z m133 -143 l20 -23 -25 7 c-47 15 -149
18 -181 7 -52 -18 -48 -2 16 54 l59 53 46 -38 c25 -21 54 -48 65 -60z m-236
64 c2 -2 0 -23 -3 -48 l-7 -45 -45 17 c-33 12 -43 20 -38 32 4 8 9 25 11 37 4
19 10 21 42 16 20 -3 38 -7 40 -9z m334 -6 c2 -13 8 -31 12 -40 5 -13 -2 -19
-34 -29 -23 -7 -43 -10 -46 -8 -2 3 -7 23 -11 46 -6 41 -6 42 27 46 19 2 37 5
40 5 4 1 9 -8 12 -20z m-166 -133 l37 -65 73 0 c40 0 73 -3 73 -6 0 -4 -16
-33 -36 -65 l-35 -59 36 -62 c21 -35 38 -65 40 -66 7 -7 26 41 34 81 7 41 7
41 20 18 7 -13 16 -47 21 -75 4 -28 9 -57 11 -64 3 -9 -22 -22 -73 -40 -83
-28 -107 -25 -64 9 14 11 31 29 36 40 10 18 7 19 -67 19 l-78 0 -32 -59 c-18
-33 -33 -62 -33 -65 0 -10 33 -6 75 9 21 8 41 12 44 9 3 -2 -23 -31 -58 -63
l-63 -58 -22 21 c-12 11 -39 35 -59 53 -49 41 -47 54 4 36 67 -23 72 -15 32
55 l-35 62 -74 0 c-41 0 -74 -3 -74 -7 0 -4 14 -22 32 -40 17 -18 29 -35 26
-38 -3 -3 -37 6 -76 21 l-70 26 5 36 c8 60 23 111 33 117 6 3 10 -5 10 -18 0
-29 19 -87 28 -87 4 0 23 29 43 64 l36 64 -33 58 c-19 33 -34 62 -34 67 0 4
33 7 73 7 l73 0 37 65 c21 36 40 65 42 65 2 0 21 -29 42 -65z m-230 3 c-40
-39 -77 -107 -77 -143 0 -14 -4 -25 -9 -25 -11 0 -17 19 -26 75 -3 22 -8 50
-11 63 -3 14 0 22 10 22 7 0 33 9 57 20 24 11 54 20 67 20 22 0 22 -2 -11 -32z
m445 8 c37 -13 65 -25 62 -28 -2 -3 -9 -34 -15 -69 -10 -64 -39 -117 -39 -72
0 42 -32 109 -72 151 -51 51 -38 54 64 18z m-564 -175 l34 -29 -37 -27 -36
-28 -28 27 -28 27 26 29 c14 16 28 29 31 29 3 0 20 -13 38 -28z m681 0 l27
-29 -26 -29 -27 -30 -36 29 -36 29 32 29 c18 16 34 30 35 30 2 0 16 -13 31
-29z m-504 -312 c4 -22 5 -42 3 -43 -1 -2 -19 -6 -39 -10 -32 -6 -37 -4 -42
16 -2 13 -7 30 -11 39 -5 12 2 19 26 26 52 17 56 15 63 -28z m317 29 c29 -9
37 -15 32 -27 -4 -9 -9 -26 -11 -39 -5 -20 -10 -22 -42 -16 -20 4 -38 8 -39
10 -6 4 9 84 15 84 3 0 23 -5 45 -12z"/>
<path d="M486 575 c-3 -9 -3 -27 0 -41 5 -19 1 -26 -20 -34 -22 -8 -26 -16
-26 -51 0 -38 -2 -42 -40 -56 -36 -15 -54 -33 -31 -33 5 0 11 -10 13 -22 3
-22 6 -23 123 -23 117 0 120 1 123 23 2 12 8 22 13 22 23 0 5 18 -31 33 -38
14 -40 18 -40 57 0 33 -4 42 -22 49 -19 7 -23 16 -23 47 0 28 -5 39 -16 42 -9
2 -19 -4 -23 -13z m-21 -194 c-3 -6 -14 -11 -23 -11 -13 0 -13 2 4 14 21 15
30 14 19 -3z m110 -9 c-7 -8 -35 7 -35 18 0 6 7 6 20 -2 10 -7 17 -14 15 -16z"/>
</g>
</svg>
